<?xml version="1.0" encoding="utf-8"?>
<svg xmlns="http://www.w3.org/2000/svg" xmlns:xlink="http://www.w3.org/1999/xlink" style="margin: auto; background: none; display: block; shape-rendering: auto;" width="175px" height="175px" viewBox="0 0 100 100" preserveAspectRatio="xMidYMid">
<g transform="rotate(0 50 50)">
  <rect x="49.5" y="35.5" rx="0" ry="0" width="1" height="5" fill="#ff92a8">
    <animate attributeName="opacity" values="1;0" keyTimes="0;1" dur="1.0416666666666665s" begin="-1.0312499999999998s" repeatCount="indefinite"></animate>
  </rect>
</g><g transform="rotate(3.6 50 50)">
  <rect x="49.5" y="35.5" rx="0" ry="0" width="1" height="5" fill="#ff92a8">
    <animate attributeName="opacity" values="1;0" keyTimes="0;1" dur="1.0416666666666665s" begin="-1.0208333333333333s" repeatCount="indefinite"></animate>
  </rect>
</g><g transform="rotate(7.2 50 50)">
  <rect x="49.5" y="35.5" rx="0" ry="0" width="1" height="5" fill="#ff92a8">
    <animate attributeName="opacity" values="1;0" keyTimes="0;1" dur="1.0416666666666665s" begin="-1.0104166666666665s" repeatCount="indefinite"></animate>
  </rect>
</g><g transform="rotate(10.8 50 50)">
  <rect x="49.5" y="35.5" rx="0" ry="0" width="1" height="5" fill="#ff92a8">
    <animate attributeName="opacity" values="1;0" keyTimes="0;1" dur="1.0416666666666665s" begin="-0.9999999999999999s" repeatCount="indefinite"></animate>
  </rect>
</g><g transform="rotate(14.4 50 50)">
  <rect x="49.5" y="35.5" rx="0" ry="0" width="1" height="5" fill="#ff92a8">
    <animate attributeName="opacity" values="1;0" keyTimes="0;1" dur="1.0416666666666665s" begin="-0.9895833333333331s" repeatCount="indefinite"></animate>
  </rect>
</g><g transform="rotate(18 50 50)">
  <rect x="49.5" y="35.5" rx="0" ry="0" width="1" height="5" fill="#ff92a8">
    <animate attributeName="opacity" values="1;0" keyTimes="0;1" dur="1.0416666666666665s" begin="-0.9791666666666665s" repeatCount="indefinite"></animate>
  </rect>
</g><g transform="rotate(21.6 50 50)">
  <rect x="49.5" y="35.5" rx="0" ry="0" width="1" height="5" fill="#ff92a8">
    <animate attributeName="opacity" values="1;0" keyTimes="0;1" dur="1.0416666666666665s" begin="-0.9687499999999999s" repeatCount="indefinite"></animate>
  </rect>
</g><g transform="rotate(25.2 50 50)">
  <rect x="49.5" y="35.5" rx="0" ry="0" width="1" height="5" fill="#ff92a8">
    <animate attributeName="opacity" values="1;0" keyTimes="0;1" dur="1.0416666666666665s" begin="-0.9583333333333331s" repeatCount="indefinite"></animate>
  </rect>
</g><g transform="rotate(28.8 50 50)">
  <rect x="49.5" y="35.5" rx="0" ry="0" width="1" height="5" fill="#ff92a8">
    <animate attributeName="opacity" values="1;0" keyTimes="0;1" dur="1.0416666666666665s" begin="-0.9479166666666665s" repeatCount="indefinite"></animate>
  </rect>
</g><g transform="rotate(32.4 50 50)">
  <rect x="49.5" y="35.5" rx="0" ry="0" width="1" height="5" fill="#ff92a8">
    <animate attributeName="opacity" values="1;0" keyTimes="0;1" dur="1.0416666666666665s" begin="-0.9374999999999999s" repeatCount="indefinite"></animate>
  </rect>
</g><g transform="rotate(36 50 50)">
  <rect x="49.5" y="35.5" rx="0" ry="0" width="1" height="5" fill="#ff92a8">
    <animate attributeName="opacity" values="1;0" keyTimes="0;1" dur="1.0416666666666665s" begin="-0.9270833333333331s" repeatCount="indefinite"></animate>
  </rect>
</g><g transform="rotate(39.6 50 50)">
  <rect x="49.5" y="35.5" rx="0" ry="0" width="1" height="5" fill="#ff92a8">
    <animate attributeName="opacity" values="1;0" keyTimes="0;1" dur="1.0416666666666665s" begin="-0.9166666666666665s" repeatCount="indefinite"></animate>
  </rect>
</g><g transform="rotate(43.2 50 50)">
  <rect x="49.5" y="35.5" rx="0" ry="0" width="1" height="5" fill="#ff92a8">
    <animate attributeName="opacity" values="1;0" keyTimes="0;1" dur="1.0416666666666665s" begin="-0.9062499999999999s" repeatCount="indefinite"></animate>
  </rect>
</g><g transform="rotate(46.8 50 50)">
  <rect x="49.5" y="35.5" rx="0" ry="0" width="1" height="5" fill="#ff92a8">
    <animate attributeName="opacity" values="1;0" keyTimes="0;1" dur="1.0416666666666665s" begin="-0.8958333333333331s" repeatCount="indefinite"></animate>
  </rect>
</g><g transform="rotate(50.4 50 50)">
  <rect x="49.5" y="35.5" rx="0" ry="0" width="1" height="5" fill="#ff92a8">
    <animate attributeName="opacity" values="1;0" keyTimes="0;1" dur="1.0416666666666665s" begin="-0.8854166666666665s" repeatCount="indefinite"></animate>
  </rect>
</g><g transform="rotate(54 50 50)">
  <rect x="49.5" y="35.5" rx="0" ry="0" width="1" height="5" fill="#ff92a8">
    <animate attributeName="opacity" values="1;0" keyTimes="0;1" dur="1.0416666666666665s" begin="-0.8749999999999999s" repeatCount="indefinite"></animate>
  </rect>
</g><g transform="rotate(57.6 50 50)">
  <rect x="49.5" y="35.5" rx="0" ry="0" width="1" height="5" fill="#ff92a8">
    <animate attributeName="opacity" values="1;0" keyTimes="0;1" dur="1.0416666666666665s" begin="-0.8645833333333333s" repeatCount="indefinite"></animate>
  </rect>
</g><g transform="rotate(61.2 50 50)">
  <rect x="49.5" y="35.5" rx="0" ry="0" width="1" height="5" fill="#ff92a8">
    <animate attributeName="opacity" values="1;0" keyTimes="0;1" dur="1.0416666666666665s" begin="-0.8541666666666665s" repeatCount="indefinite"></animate>
  </rect>
</g><g transform="rotate(64.8 50 50)">
  <rect x="49.5" y="35.5" rx="0" ry="0" width="1" height="5" fill="#ff92a8">
    <animate attributeName="opacity" values="1;0" keyTimes="0;1" dur="1.0416666666666665s" begin="-0.8437499999999999s" repeatCount="indefinite"></animate>
  </rect>
</g><g transform="rotate(68.4 50 50)">
  <rect x="49.5" y="35.5" rx="0" ry="0" width="1" height="5" fill="#ff92a8">
    <animate attributeName="opacity" values="1;0" keyTimes="0;1" dur="1.0416666666666665s" begin="-0.8333333333333333s" repeatCount="indefinite"></animate>
  </rect>
</g><g transform="rotate(72 50 50)">
  <rect x="49.5" y="35.5" rx="0" ry="0" width="1" height="5" fill="#ff92a8">
    <animate attributeName="opacity" values="1;0" keyTimes="0;1" dur="1.0416666666666665s" begin="-0.8229166666666665s" repeatCount="indefinite"></animate>
  </rect>
</g><g transform="rotate(75.6 50 50)">
  <rect x="49.5" y="35.5" rx="0" ry="0" width="1" height="5" fill="#ff92a8">
    <animate attributeName="opacity" values="1;0" keyTimes="0;1" dur="1.0416666666666665s" begin="-0.8124999999999999s" repeatCount="indefinite"></animate>
  </rect>
</g><g transform="rotate(79.2 50 50)">
  <rect x="49.5" y="35.5" rx="0" ry="0" width="1" height="5" fill="#ff92a8">
    <animate attributeName="opacity" values="1;0" keyTimes="0;1" dur="1.0416666666666665s" begin="-0.8020833333333333s" repeatCount="indefinite"></animate>
  </rect>
</g><g transform="rotate(82.8 50 50)">
  <rect x="49.5" y="35.5" rx="0" ry="0" width="1" height="5" fill="#ff92a8">
    <animate attributeName="opacity" values="1;0" keyTimes="0;1" dur="1.0416666666666665s" begin="-0.7916666666666665s" repeatCount="indefinite"></animate>
  </rect>
</g><g transform="rotate(86.4 50 50)">
  <rect x="49.5" y="35.5" rx="0" ry="0" width="1" height="5" fill="#ff92a8">
    <animate attributeName="opacity" values="1;0" keyTimes="0;1" dur="1.0416666666666665s" begin="-0.7812499999999999s" repeatCount="indefinite"></animate>
  </rect>
</g><g transform="rotate(90 50 50)">
  <rect x="49.5" y="35.5" rx="0" ry="0" width="1" height="5" fill="#ff92a8">
    <animate attributeName="opacity" values="1;0" keyTimes="0;1" dur="1.0416666666666665s" begin="-0.7708333333333333s" repeatCount="indefinite"></animate>
  </rect>
</g><g transform="rotate(93.6 50 50)">
  <rect x="49.5" y="35.5" rx="0" ry="0" width="1" height="5" fill="#ff92a8">
    <animate attributeName="opacity" values="1;0" keyTimes="0;1" dur="1.0416666666666665s" begin="-0.7604166666666665s" repeatCount="indefinite"></animate>
  </rect>
</g><g transform="rotate(97.2 50 50)">
  <rect x="49.5" y="35.5" rx="0" ry="0" width="1" height="5" fill="#ff92a8">
    <animate attributeName="opacity" values="1;0" keyTimes="0;1" dur="1.0416666666666665s" begin="-0.7499999999999999s" repeatCount="indefinite"></animate>
  </rect>
</g><g transform="rotate(100.8 50 50)">
  <rect x="49.5" y="35.5" rx="0" ry="0" width="1" height="5" fill="#ff92a8">
    <animate attributeName="opacity" values="1;0" keyTimes="0;1" dur="1.0416666666666665s" begin="-0.7395833333333333s" repeatCount="indefinite"></animate>
  </rect>
</g><g transform="rotate(104.4 50 50)">
  <rect x="49.5" y="35.5" rx="0" ry="0" width="1" height="5" fill="#ff92a8">
    <animate attributeName="opacity" values="1;0" keyTimes="0;1" dur="1.0416666666666665s" begin="-0.7291666666666665s" repeatCount="indefinite"></animate>
  </rect>
</g><g transform="rotate(108 50 50)">
  <rect x="49.5" y="35.5" rx="0" ry="0" width="1" height="5" fill="#ff92a8">
    <animate attributeName="opacity" values="1;0" keyTimes="0;1" dur="1.0416666666666665s" begin="-0.7187499999999999s" repeatCount="indefinite"></animate>
  </rect>
</g><g transform="rotate(111.6 50 50)">
  <rect x="49.5" y="35.5" rx="0" ry="0" width="1" height="5" fill="#ff92a8">
    <animate attributeName="opacity" values="1;0" keyTimes="0;1" dur="1.0416666666666665s" begin="-0.7083333333333333s" repeatCount="indefinite"></animate>
  </rect>
</g><g transform="rotate(115.2 50 50)">
  <rect x="49.5" y="35.5" rx="0" ry="0" width="1" height="5" fill="#ff92a8">
    <animate attributeName="opacity" values="1;0" keyTimes="0;1" dur="1.0416666666666665s" begin="-0.6979166666666665s" repeatCount="indefinite"></animate>
  </rect>
</g><g transform="rotate(118.8 50 50)">
  <rect x="49.5" y="35.5" rx="0" ry="0" width="1" height="5" fill="#ff92a8">
    <animate attributeName="opacity" values="1;0" keyTimes="0;1" dur="1.0416666666666665s" begin="-0.6874999999999999s" repeatCount="indefinite"></animate>
  </rect>
</g><g transform="rotate(122.4 50 50)">
  <rect x="49.5" y="35.5" rx="0" ry="0" width="1" height="5" fill="#ff92a8">
    <animate attributeName="opacity" values="1;0" keyTimes="0;1" dur="1.0416666666666665s" begin="-0.6770833333333333s" repeatCount="indefinite"></animate>
  </rect>
</g><g transform="rotate(126 50 50)">
  <rect x="49.5" y="35.5" rx="0" ry="0" width="1" height="5" fill="#ff92a8">
    <animate attributeName="opacity" values="1;0" keyTimes="0;1" dur="1.0416666666666665s" begin="-0.6666666666666665s" repeatCount="indefinite"></animate>
  </rect>
</g><g transform="rotate(129.6 50 50)">
  <rect x="49.5" y="35.5" rx="0" ry="0" width="1" height="5" fill="#ff92a8">
    <animate attributeName="opacity" values="1;0" keyTimes="0;1" dur="1.0416666666666665s" begin="-0.6562499999999999s" repeatCount="indefinite"></animate>
  </rect>
</g><g transform="rotate(133.2 50 50)">
  <rect x="49.5" y="35.5" rx="0" ry="0" width="1" height="5" fill="#ff92a8">
    <animate attributeName="opacity" values="1;0" keyTimes="0;1" dur="1.0416666666666665s" begin="-0.6458333333333333s" repeatCount="indefinite"></animate>
  </rect>
</g><g transform="rotate(136.8 50 50)">
  <rect x="49.5" y="35.5" rx="0" ry="0" width="1" height="5" fill="#ff92a8">
    <animate attributeName="opacity" values="1;0" keyTimes="0;1" dur="1.0416666666666665s" begin="-0.6354166666666665s" repeatCount="indefinite"></animate>
  </rect>
</g><g transform="rotate(140.4 50 50)">
  <rect x="49.5" y="35.5" rx="0" ry="0" width="1" height="5" fill="#ff92a8">
    <animate attributeName="opacity" values="1;0" keyTimes="0;1" dur="1.0416666666666665s" begin="-0.6249999999999999s" repeatCount="indefinite"></animate>
  </rect>
</g><g transform="rotate(144 50 50)">
  <rect x="49.5" y="35.5" rx="0" ry="0" width="1" height="5" fill="#ff92a8">
    <animate attributeName="opacity" values="1;0" keyTimes="0;1" dur="1.0416666666666665s" begin="-0.6145833333333333s" repeatCount="indefinite"></animate>
  </rect>
</g><g transform="rotate(147.6 50 50)">
  <rect x="49.5" y="35.5" rx="0" ry="0" width="1" height="5" fill="#ff92a8">
    <animate attributeName="opacity" values="1;0" keyTimes="0;1" dur="1.0416666666666665s" begin="-0.6041666666666666s" repeatCount="indefinite"></animate>
  </rect>
</g><g transform="rotate(151.2 50 50)">
  <rect x="49.5" y="35.5" rx="0" ry="0" width="1" height="5" fill="#ff92a8">
    <animate attributeName="opacity" values="1;0" keyTimes="0;1" dur="1.0416666666666665s" begin="-0.5937499999999999s" repeatCount="indefinite"></animate>
  </rect>
</g><g transform="rotate(154.8 50 50)">
  <rect x="49.5" y="35.5" rx="0" ry="0" width="1" height="5" fill="#ff92a8">
    <animate attributeName="opacity" values="1;0" keyTimes="0;1" dur="1.0416666666666665s" begin="-0.5833333333333333s" repeatCount="indefinite"></animate>
  </rect>
</g><g transform="rotate(158.4 50 50)">
  <rect x="49.5" y="35.5" rx="0" ry="0" width="1" height="5" fill="#ff92a8">
    <animate attributeName="opacity" values="1;0" keyTimes="0;1" dur="1.0416666666666665s" begin="-0.5729166666666666s" repeatCount="indefinite"></animate>
  </rect>
</g><g transform="rotate(162 50 50)">
  <rect x="49.5" y="35.5" rx="0" ry="0" width="1" height="5" fill="#ff92a8">
    <animate attributeName="opacity" values="1;0" keyTimes="0;1" dur="1.0416666666666665s" begin="-0.5624999999999999s" repeatCount="indefinite"></animate>
  </rect>
</g><g transform="rotate(165.6 50 50)">
  <rect x="49.5" y="35.5" rx="0" ry="0" width="1" height="5" fill="#ff92a8">
    <animate attributeName="opacity" values="1;0" keyTimes="0;1" dur="1.0416666666666665s" begin="-0.5520833333333333s" repeatCount="indefinite"></animate>
  </rect>
</g><g transform="rotate(169.2 50 50)">
  <rect x="49.5" y="35.5" rx="0" ry="0" width="1" height="5" fill="#ff92a8">
    <animate attributeName="opacity" values="1;0" keyTimes="0;1" dur="1.0416666666666665s" begin="-0.5416666666666666s" repeatCount="indefinite"></animate>
  </rect>
</g><g transform="rotate(172.8 50 50)">
  <rect x="49.5" y="35.5" rx="0" ry="0" width="1" height="5" fill="#ff92a8">
    <animate attributeName="opacity" values="1;0" keyTimes="0;1" dur="1.0416666666666665s" begin="-0.5312499999999999s" repeatCount="indefinite"></animate>
  </rect>
</g><g transform="rotate(176.4 50 50)">
  <rect x="49.5" y="35.5" rx="0" ry="0" width="1" height="5" fill="#ff92a8">
    <animate attributeName="opacity" values="1;0" keyTimes="0;1" dur="1.0416666666666665s" begin="-0.5208333333333333s" repeatCount="indefinite"></animate>
  </rect>
</g><g transform="rotate(180 50 50)">
  <rect x="49.5" y="35.5" rx="0" ry="0" width="1" height="5" fill="#ff92a8">
    <animate attributeName="opacity" values="1;0" keyTimes="0;1" dur="1.0416666666666665s" begin="-0.5104166666666666s" repeatCount="indefinite"></animate>
  </rect>
</g><g transform="rotate(183.6 50 50)">
  <rect x="49.5" y="35.5" rx="0" ry="0" width="1" height="5" fill="#ff92a8">
    <animate attributeName="opacity" values="1;0" keyTimes="0;1" dur="1.0416666666666665s" begin="-0.49999999999999994s" repeatCount="indefinite"></animate>
  </rect>
</g><g transform="rotate(187.2 50 50)">
  <rect x="49.5" y="35.5" rx="0" ry="0" width="1" height="5" fill="#ff92a8">
    <animate attributeName="opacity" values="1;0" keyTimes="0;1" dur="1.0416666666666665s" begin="-0.48958333333333326s" repeatCount="indefinite"></animate>
  </rect>
</g><g transform="rotate(190.8 50 50)">
  <rect x="49.5" y="35.5" rx="0" ry="0" width="1" height="5" fill="#ff92a8">
    <animate attributeName="opacity" values="1;0" keyTimes="0;1" dur="1.0416666666666665s" begin="-0.4791666666666666s" repeatCount="indefinite"></animate>
  </rect>
</g><g transform="rotate(194.4 50 50)">
  <rect x="49.5" y="35.5" rx="0" ry="0" width="1" height="5" fill="#ff92a8">
    <animate attributeName="opacity" values="1;0" keyTimes="0;1" dur="1.0416666666666665s" begin="-0.46874999999999994s" repeatCount="indefinite"></animate>
  </rect>
</g><g transform="rotate(198 50 50)">
  <rect x="49.5" y="35.5" rx="0" ry="0" width="1" height="5" fill="#ff92a8">
    <animate attributeName="opacity" values="1;0" keyTimes="0;1" dur="1.0416666666666665s" begin="-0.45833333333333326s" repeatCount="indefinite"></animate>
  </rect>
</g><g transform="rotate(201.6 50 50)">
  <rect x="49.5" y="35.5" rx="0" ry="0" width="1" height="5" fill="#ff92a8">
    <animate attributeName="opacity" values="1;0" keyTimes="0;1" dur="1.0416666666666665s" begin="-0.4479166666666666s" repeatCount="indefinite"></animate>
  </rect>
</g><g transform="rotate(205.2 50 50)">
  <rect x="49.5" y="35.5" rx="0" ry="0" width="1" height="5" fill="#ff92a8">
    <animate attributeName="opacity" values="1;0" keyTimes="0;1" dur="1.0416666666666665s" begin="-0.43749999999999994s" repeatCount="indefinite"></animate>
  </rect>
</g><g transform="rotate(208.8 50 50)">
  <rect x="49.5" y="35.5" rx="0" ry="0" width="1" height="5" fill="#ff92a8">
    <animate attributeName="opacity" values="1;0" keyTimes="0;1" dur="1.0416666666666665s" begin="-0.42708333333333326s" repeatCount="indefinite"></animate>
  </rect>
</g><g transform="rotate(212.4 50 50)">
  <rect x="49.5" y="35.5" rx="0" ry="0" width="1" height="5" fill="#ff92a8">
    <animate attributeName="opacity" values="1;0" keyTimes="0;1" dur="1.0416666666666665s" begin="-0.41666666666666663s" repeatCount="indefinite"></animate>
  </rect>
</g><g transform="rotate(216 50 50)">
  <rect x="49.5" y="35.5" rx="0" ry="0" width="1" height="5" fill="#ff92a8">
    <animate attributeName="opacity" values="1;0" keyTimes="0;1" dur="1.0416666666666665s" begin="-0.40624999999999994s" repeatCount="indefinite"></animate>
  </rect>
</g><g transform="rotate(219.6 50 50)">
  <rect x="49.5" y="35.5" rx="0" ry="0" width="1" height="5" fill="#ff92a8">
    <animate attributeName="opacity" values="1;0" keyTimes="0;1" dur="1.0416666666666665s" begin="-0.39583333333333326s" repeatCount="indefinite"></animate>
  </rect>
</g><g transform="rotate(223.2 50 50)">
  <rect x="49.5" y="35.5" rx="0" ry="0" width="1" height="5" fill="#ff92a8">
    <animate attributeName="opacity" values="1;0" keyTimes="0;1" dur="1.0416666666666665s" begin="-0.38541666666666663s" repeatCount="indefinite"></animate>
  </rect>
</g><g transform="rotate(226.8 50 50)">
  <rect x="49.5" y="35.5" rx="0" ry="0" width="1" height="5" fill="#ff92a8">
    <animate attributeName="opacity" values="1;0" keyTimes="0;1" dur="1.0416666666666665s" begin="-0.37499999999999994s" repeatCount="indefinite"></animate>
  </rect>
</g><g transform="rotate(230.4 50 50)">
  <rect x="49.5" y="35.5" rx="0" ry="0" width="1" height="5" fill="#ff92a8">
    <animate attributeName="opacity" values="1;0" keyTimes="0;1" dur="1.0416666666666665s" begin="-0.36458333333333326s" repeatCount="indefinite"></animate>
  </rect>
</g><g transform="rotate(234 50 50)">
  <rect x="49.5" y="35.5" rx="0" ry="0" width="1" height="5" fill="#ff92a8">
    <animate attributeName="opacity" values="1;0" keyTimes="0;1" dur="1.0416666666666665s" begin="-0.35416666666666663s" repeatCount="indefinite"></animate>
  </rect>
</g><g transform="rotate(237.6 50 50)">
  <rect x="49.5" y="35.5" rx="0" ry="0" width="1" height="5" fill="#ff92a8">
    <animate attributeName="opacity" values="1;0" keyTimes="0;1" dur="1.0416666666666665s" begin="-0.34374999999999994s" repeatCount="indefinite"></animate>
  </rect>
</g><g transform="rotate(241.2 50 50)">
  <rect x="49.5" y="35.5" rx="0" ry="0" width="1" height="5" fill="#ff92a8">
    <animate attributeName="opacity" values="1;0" keyTimes="0;1" dur="1.0416666666666665s" begin="-0.33333333333333326s" repeatCount="indefinite"></animate>
  </rect>
</g><g transform="rotate(244.8 50 50)">
  <rect x="49.5" y="35.5" rx="0" ry="0" width="1" height="5" fill="#ff92a8">
    <animate attributeName="opacity" values="1;0" keyTimes="0;1" dur="1.0416666666666665s" begin="-0.32291666666666663s" repeatCount="indefinite"></animate>
  </rect>
</g><g transform="rotate(248.4 50 50)">
  <rect x="49.5" y="35.5" rx="0" ry="0" width="1" height="5" fill="#ff92a8">
    <animate attributeName="opacity" values="1;0" keyTimes="0;1" dur="1.0416666666666665s" begin="-0.31249999999999994s" repeatCount="indefinite"></animate>
  </rect>
</g><g transform="rotate(252 50 50)">
  <rect x="49.5" y="35.5" rx="0" ry="0" width="1" height="5" fill="#ff92a8">
    <animate attributeName="opacity" values="1;0" keyTimes="0;1" dur="1.0416666666666665s" begin="-0.3020833333333333s" repeatCount="indefinite"></animate>
  </rect>
</g><g transform="rotate(255.6 50 50)">
  <rect x="49.5" y="35.5" rx="0" ry="0" width="1" height="5" fill="#ff92a8">
    <animate attributeName="opacity" values="1;0" keyTimes="0;1" dur="1.0416666666666665s" begin="-0.29166666666666663s" repeatCount="indefinite"></animate>
  </rect>
</g><g transform="rotate(259.2 50 50)">
  <rect x="49.5" y="35.5" rx="0" ry="0" width="1" height="5" fill="#ff92a8">
    <animate attributeName="opacity" values="1;0" keyTimes="0;1" dur="1.0416666666666665s" begin="-0.28124999999999994s" repeatCount="indefinite"></animate>
  </rect>
</g><g transform="rotate(262.8 50 50)">
  <rect x="49.5" y="35.5" rx="0" ry="0" width="1" height="5" fill="#ff92a8">
    <animate attributeName="opacity" values="1;0" keyTimes="0;1" dur="1.0416666666666665s" begin="-0.2708333333333333s" repeatCount="indefinite"></animate>
  </rect>
</g><g transform="rotate(266.4 50 50)">
  <rect x="49.5" y="35.5" rx="0" ry="0" width="1" height="5" fill="#ff92a8">
    <animate attributeName="opacity" values="1;0" keyTimes="0;1" dur="1.0416666666666665s" begin="-0.26041666666666663s" repeatCount="indefinite"></animate>
  </rect>
</g><g transform="rotate(270 50 50)">
  <rect x="49.5" y="35.5" rx="0" ry="0" width="1" height="5" fill="#ff92a8">
    <animate attributeName="opacity" values="1;0" keyTimes="0;1" dur="1.0416666666666665s" begin="-0.24999999999999997s" repeatCount="indefinite"></animate>
  </rect>
</g><g transform="rotate(273.6 50 50)">
  <rect x="49.5" y="35.5" rx="0" ry="0" width="1" height="5" fill="#ff92a8">
    <animate attributeName="opacity" values="1;0" keyTimes="0;1" dur="1.0416666666666665s" begin="-0.2395833333333333s" repeatCount="indefinite"></animate>
  </rect>
</g><g transform="rotate(277.2 50 50)">
  <rect x="49.5" y="35.5" rx="0" ry="0" width="1" height="5" fill="#ff92a8">
    <animate attributeName="opacity" values="1;0" keyTimes="0;1" dur="1.0416666666666665s" begin="-0.22916666666666663s" repeatCount="indefinite"></animate>
  </rect>
</g><g transform="rotate(280.8 50 50)">
  <rect x="49.5" y="35.5" rx="0" ry="0" width="1" height="5" fill="#ff92a8">
    <animate attributeName="opacity" values="1;0" keyTimes="0;1" dur="1.0416666666666665s" begin="-0.21874999999999997s" repeatCount="indefinite"></animate>
  </rect>
</g><g transform="rotate(284.4 50 50)">
  <rect x="49.5" y="35.5" rx="0" ry="0" width="1" height="5" fill="#ff92a8">
    <animate attributeName="opacity" values="1;0" keyTimes="0;1" dur="1.0416666666666665s" begin="-0.20833333333333331s" repeatCount="indefinite"></animate>
  </rect>
</g><g transform="rotate(288 50 50)">
  <rect x="49.5" y="35.5" rx="0" ry="0" width="1" height="5" fill="#ff92a8">
    <animate attributeName="opacity" values="1;0" keyTimes="0;1" dur="1.0416666666666665s" begin="-0.19791666666666663s" repeatCount="indefinite"></animate>
  </rect>
</g><g transform="rotate(291.6 50 50)">
  <rect x="49.5" y="35.5" rx="0" ry="0" width="1" height="5" fill="#ff92a8">
    <animate attributeName="opacity" values="1;0" keyTimes="0;1" dur="1.0416666666666665s" begin="-0.18749999999999997s" repeatCount="indefinite"></animate>
  </rect>
</g><g transform="rotate(295.2 50 50)">
  <rect x="49.5" y="35.5" rx="0" ry="0" width="1" height="5" fill="#ff92a8">
    <animate attributeName="opacity" values="1;0" keyTimes="0;1" dur="1.0416666666666665s" begin="-0.17708333333333331s" repeatCount="indefinite"></animate>
  </rect>
</g><g transform="rotate(298.8 50 50)">
  <rect x="49.5" y="35.5" rx="0" ry="0" width="1" height="5" fill="#ff92a8">
    <animate attributeName="opacity" values="1;0" keyTimes="0;1" dur="1.0416666666666665s" begin="-0.16666666666666663s" repeatCount="indefinite"></animate>
  </rect>
</g><g transform="rotate(302.4 50 50)">
  <rect x="49.5" y="35.5" rx="0" ry="0" width="1" height="5" fill="#ff92a8">
    <animate attributeName="opacity" values="1;0" keyTimes="0;1" dur="1.0416666666666665s" begin="-0.15624999999999997s" repeatCount="indefinite"></animate>
  </rect>
</g><g transform="rotate(306 50 50)">
  <rect x="49.5" y="35.5" rx="0" ry="0" width="1" height="5" fill="#ff92a8">
    <animate attributeName="opacity" values="1;0" keyTimes="0;1" dur="1.0416666666666665s" begin="-0.14583333333333331s" repeatCount="indefinite"></animate>
  </rect>
</g><g transform="rotate(309.6 50 50)">
  <rect x="49.5" y="35.5" rx="0" ry="0" width="1" height="5" fill="#ff92a8">
    <animate attributeName="opacity" values="1;0" keyTimes="0;1" dur="1.0416666666666665s" begin="-0.13541666666666666s" repeatCount="indefinite"></animate>
  </rect>
</g><g transform="rotate(313.2 50 50)">
  <rect x="49.5" y="35.5" rx="0" ry="0" width="1" height="5" fill="#ff92a8">
    <animate attributeName="opacity" values="1;0" keyTimes="0;1" dur="1.0416666666666665s" begin="-0.12499999999999999s" repeatCount="indefinite"></animate>
  </rect>
</g><g transform="rotate(316.8 50 50)">
  <rect x="49.5" y="35.5" rx="0" ry="0" width="1" height="5" fill="#ff92a8">
    <animate attributeName="opacity" values="1;0" keyTimes="0;1" dur="1.0416666666666665s" begin="-0.11458333333333331s" repeatCount="indefinite"></animate>
  </rect>
</g><g transform="rotate(320.4 50 50)">
  <rect x="49.5" y="35.5" rx="0" ry="0" width="1" height="5" fill="#ff92a8">
    <animate attributeName="opacity" values="1;0" keyTimes="0;1" dur="1.0416666666666665s" begin="-0.10416666666666666s" repeatCount="indefinite"></animate>
  </rect>
</g><g transform="rotate(324 50 50)">
  <rect x="49.5" y="35.5" rx="0" ry="0" width="1" height="5" fill="#ff92a8">
    <animate attributeName="opacity" values="1;0" keyTimes="0;1" dur="1.0416666666666665s" begin="-0.09374999999999999s" repeatCount="indefinite"></animate>
  </rect>
</g><g transform="rotate(327.6 50 50)">
  <rect x="49.5" y="35.5" rx="0" ry="0" width="1" height="5" fill="#ff92a8">
    <animate attributeName="opacity" values="1;0" keyTimes="0;1" dur="1.0416666666666665s" begin="-0.08333333333333331s" repeatCount="indefinite"></animate>
  </rect>
</g><g transform="rotate(331.2 50 50)">
  <rect x="49.5" y="35.5" rx="0" ry="0" width="1" height="5" fill="#ff92a8">
    <animate attributeName="opacity" values="1;0" keyTimes="0;1" dur="1.0416666666666665s" begin="-0.07291666666666666s" repeatCount="indefinite"></animate>
  </rect>
</g><g transform="rotate(334.8 50 50)">
  <rect x="49.5" y="35.5" rx="0" ry="0" width="1" height="5" fill="#ff92a8">
    <animate attributeName="opacity" values="1;0" keyTimes="0;1" dur="1.0416666666666665s" begin="-0.06249999999999999s" repeatCount="indefinite"></animate>
  </rect>
</g><g transform="rotate(338.4 50 50)">
  <rect x="49.5" y="35.5" rx="0" ry="0" width="1" height="5" fill="#ff92a8">
    <animate attributeName="opacity" values="1;0" keyTimes="0;1" dur="1.0416666666666665s" begin="-0.05208333333333333s" repeatCount="indefinite"></animate>
  </rect>
</g><g transform="rotate(342 50 50)">
  <rect x="49.5" y="35.5" rx="0" ry="0" width="1" height="5" fill="#ff92a8">
    <animate attributeName="opacity" values="1;0" keyTimes="0;1" dur="1.0416666666666665s" begin="-0.04166666666666666s" repeatCount="indefinite"></animate>
  </rect>
</g><g transform="rotate(345.6 50 50)">
  <rect x="49.5" y="35.5" rx="0" ry="0" width="1" height="5" fill="#ff92a8">
    <animate attributeName="opacity" values="1;0" keyTimes="0;1" dur="1.0416666666666665s" begin="-0.031249999999999997s" repeatCount="indefinite"></animate>
  </rect>
</g><g transform="rotate(349.2 50 50)">
  <rect x="49.5" y="35.5" rx="0" ry="0" width="1" height="5" fill="#ff92a8">
    <animate attributeName="opacity" values="1;0" keyTimes="0;1" dur="1.0416666666666665s" begin="-0.02083333333333333s" repeatCount="indefinite"></animate>
  </rect>
</g><g transform="rotate(352.8 50 50)">
  <rect x="49.5" y="35.5" rx="0" ry="0" width="1" height="5" fill="#ff92a8">
    <animate attributeName="opacity" values="1;0" keyTimes="0;1" dur="1.0416666666666665s" begin="-0.010416666666666664s" repeatCount="indefinite"></animate>
  </rect>
</g><g transform="rotate(356.4 50 50)">
  <rect x="49.5" y="35.5" rx="0" ry="0" width="1" height="5" fill="#ff92a8">
    <animate attributeName="opacity" values="1;0" keyTimes="0;1" dur="1.0416666666666665s" begin="0s" repeatCount="indefinite"></animate>
  </rect>
</g>
<!-- [ldio] generated by https://loading.io/ --></svg>